<svg width="345" height="415" viewBox="0 0 345 415" fill="none" xmlns="http://www.w3.org/2000/svg">
<path d="M71.8476 268.096C60.7184 303.212 16.5706 319.45 6.13161 332.447C-7.33769 349.216 3.69087 360.123 17.0412 361.453C28.6553 362.61 37.5298 355.926 42.1724 351.276C34.8695 361.277 23.2188 385.302 40.3518 388.954C62.5349 393.684 78.1553 366.042 78.1553 366.042C78.1553 366.042 70.9205 414.294 93.8599 407.004C103.96 403.795 112.379 388.017 114.983 379.268C112.835 391.826 119.384 412.665 128.477 413.43C143.542 414.698 152.151 395.824 152.34 379.477C152.642 393.539 159.292 414.951 173.356 414.348C185.863 413.812 193.917 399.297 193.248 381.132C193.959 396.67 200.823 414.754 216.027 411.464C228.789 408.054 231.896 395.824 232.086 379.477C234.254 394.103 246.396 405.541 254.964 405.165C264.741 404.738 271.98 385.586 270.38 369.718C280.152 389.314 299.888 393.697 305.067 388.321C313.896 379.154 310.678 363.308 303.058 353.137C312.77 358.918 322.357 356.59 327.593 356.246C343.108 355.225 356.193 328.444 326.93 316.563C296.57 304.236 273.94 282.042 263.632 258.205C197.337 260.801 138.03 276.378 71.8476 268.096Z" fill="#0C2711"/>
<path d="M224.388 202.318C182.879 215.404 143.849 209.772 108.344 205.479C96.8167 240.722 57.4354 247.836 46.6227 260.88C32.6714 277.71 44.0949 288.655 57.9221 289.991C74.7688 291.617 86.0997 277.786 87.5311 275.787C82.0071 279.941 60.9854 313.236 82.0672 317.591C105.045 322.338 121.222 291.408 121.222 291.408C121.222 291.408 113.312 338.29 137.491 332.517C151.829 329.093 158.67 296.25 158.67 296.25C159.192 309.218 163.08 340.822 181.854 337.713C197.988 335.04 198.636 313.277 197.966 292.952C195.532 309.326 211.245 331.116 221.758 330.671C234.842 330.117 243.551 303.524 233.776 284.758C235.678 311.02 267.021 323.626 273.653 316.955C285.84 304.697 275.871 280.538 262.48 273.805C275.167 289.071 289.913 285.215 296.987 284.765C313.057 283.74 325.642 259.261 296.299 244.939C259.514 226.985 224.388 202.318 224.388 202.318Z" fill="#222D0B"/>
<path d="M48.6363 246.574C59.4027 232.956 75.985 225.881 92.7264 230.691C100.777 232.326 114.555 248.926 123.842 253.376C137.125 259.742 146.509 267.005 144.748 275.682C142.161 288.421 126.734 291.215 103.954 286.59C81.1736 281.965 87.158 280.64 67.1761 279.123C47.1942 277.606 35.5742 263.096 48.6363 246.574Z" fill="white" stroke="white"/>
<path d="M122.138 147.353C110.63 182.524 75.6333 187.275 65.6741 201.05C53.2391 218.248 63.1505 228.767 76.9546 230.1C93.7732 231.723 100.337 224.193 101.766 222.199C100.091 224.656 82.3616 252.137 103.361 256.74C124.9 261.46 135.205 229.032 135.205 229.032C135.205 229.032 128.744 277.285 152.175 268.963C165.797 264.124 168.867 231.061 168.867 231.061C168.867 231.061 177.971 274.934 196.369 270.172C211.621 266.224 213.601 244.559 208.082 230.324C214.47 249.628 237.163 261.822 245.682 255.181C255.246 247.72 253.997 237.811 241.953 220.708C250.042 225.231 267.048 227.606 273.732 223.762C280.523 219.858 287.392 208.57 270.703 191.933C257.01 178.281 238.144 183.259 218.935 144.787C175.455 156.668 154.056 151.127 122.138 147.353Z" fill="#374A10"/>
<path d="M192.636 174.574C203.403 160.956 219.985 153.881 236.726 158.691C244.777 160.326 258.555 176.926 267.842 181.376C281.125 187.742 290.509 195.005 288.748 203.682C286.161 216.421 270.734 219.215 247.954 214.59C225.174 209.965 231.158 208.64 211.176 207.123C191.194 205.606 179.574 191.096 192.636 174.574Z" fill="white" stroke="white"/>
<path d="M79.2856 137.504C65.543 150.69 81.1689 163.737 95.2802 164.498C119.438 165.8 126.976 146.961 126.976 146.961C126.976 146.961 100.825 181.166 121.766 194.822C143.835 209.216 162.171 158.044 162.171 158.044C162.171 158.044 151.852 213.061 184.265 204.751C203.111 199.918 199.17 160.362 199.17 160.362C199.17 160.362 213.148 202.459 232.994 196.002C254.871 188.885 240.087 156.432 222.882 147.172C225.49 160.542 245.151 170.69 258.027 167.381C265.646 165.425 288.577 155.479 269.682 137.195C255.06 123.043 222.131 112.251 205.587 84.091C181.913 43.7948 188.919 9.56172 176.414 10.0042C170.014 10.2311 163.686 59.8549 141.752 89.4531C120.498 118.129 92.035 125.269 79.2856 137.504Z" fill="#55591E"/>
<path d="M73.6144 125.777C59.1035 139.689 75.603 153.455 90.5032 154.258C116.011 155.632 123.971 135.755 123.971 135.755C123.971 135.755 101.86 162.436 123.971 176.845C147.273 192.033 161.133 147.449 161.133 147.449C161.133 147.449 150.008 185.613 184.233 176.845C204.133 171.747 200.2 149.894 200.2 149.894C200.2 149.894 208.252 180.156 229.207 173.343C252.307 165.834 243.405 145.748 225.238 135.977C227.992 150.084 244.816 162.244 258.412 158.752C266.457 156.688 298.513 145.068 278.563 125.777C263.123 110.845 244.102 90.4653 225.238 58.0729C203.216 25.3887 210.225 0 172.259 0C141.011 0 135.214 42.3144 114.435 70.3295C91.993 100.585 87.0766 112.867 73.6144 125.777Z" fill="#F6FBFF"/>
</svg>
