<svg width="551" height="669" viewBox="0 0 551 669" fill="none" xmlns="http://www.w3.org/2000/svg">
<path d="M114.96 434.969C97.1524 491.157 26.5138 517.137 9.81089 537.934C-11.7407 564.766 5.90558 582.216 27.2668 584.345C45.85 586.195 60.0496 575.501 67.478 568.061C55.793 584.063 37.1513 622.504 64.5649 628.349C100.059 635.917 125.052 591.688 125.052 591.688C125.052 591.688 113.476 668.894 150.181 657.229C166.342 652.094 179.813 626.848 183.978 612.85C180.542 632.943 191.02 666.287 205.569 667.51C229.674 669.54 243.449 639.341 243.752 613.185C244.235 635.684 254.876 669.944 277.379 668.98C297.39 668.122 310.277 644.897 309.207 615.833C310.344 640.693 321.328 669.629 345.654 664.364C366.074 658.909 371.046 639.341 371.35 613.185C374.818 636.587 394.247 654.887 407.955 654.287C423.599 653.603 435.182 622.958 432.622 597.569C448.257 628.923 479.837 635.936 488.122 627.335C502.25 612.667 497.101 587.313 484.908 571.038C500.448 580.289 515.788 576.564 524.166 576.013C548.99 574.379 569.927 531.53 523.104 512.518C474.528 492.794 438.318 457.283 421.825 419.143C315.749 423.297 220.855 448.221 114.96 434.969Z" fill="#091F0C"/>
<path d="M359.032 329.721C292.615 350.659 230.165 341.648 173.356 334.779C154.912 391.169 91.8996 402.552 74.5987 423.424C52.2758 450.352 70.5541 467.865 92.6783 470.001C119.634 472.603 137.764 450.474 140.054 447.274C131.216 453.922 97.5797 507.195 131.312 514.164C168.077 521.759 193.962 472.269 193.962 472.269C193.962 472.269 181.305 547.282 219.992 538.045C242.934 532.567 253.881 480.017 253.881 480.017C254.715 500.766 260.936 551.335 290.976 546.359C316.79 542.083 317.828 507.261 316.756 474.74C312.861 500.94 338.002 535.804 354.824 535.092C375.759 534.205 389.695 491.655 374.054 461.629C377.096 503.649 427.246 523.82 437.859 513.146C457.359 493.532 441.408 454.876 419.981 444.104C440.281 468.53 463.876 462.36 475.194 461.64C500.907 460 521.044 420.833 474.093 397.917C415.236 369.19 359.032 329.721 359.032 329.721Z" fill="#24300D"/>
<path d="M195.428 241.774C177.014 298.049 121.017 305.652 105.082 327.692C85.1852 355.21 101.044 372.041 123.131 374.173C150.042 376.77 160.544 364.723 162.83 361.531C160.15 365.463 131.783 409.434 165.383 416.799C199.846 424.351 216.334 372.465 216.334 372.465C216.334 372.465 205.996 449.671 243.487 436.356C265.283 428.613 270.196 375.711 270.196 375.711C270.196 375.711 284.762 445.909 314.2 438.291C338.604 431.974 341.772 397.308 332.942 374.532C343.163 405.419 379.473 424.931 393.103 414.305C408.406 402.366 406.407 386.511 387.137 359.146C400.08 366.384 427.29 370.183 437.985 364.033C448.852 357.785 459.842 339.724 433.139 313.104C411.229 291.26 381.042 299.226 350.306 237.668C280.737 256.679 246.497 247.812 195.428 241.774Z" fill="#334412"/>
<path d="M126.861 226.015C104.872 247.114 129.874 267.99 152.453 269.207C191.106 271.291 203.168 241.147 203.168 241.147C203.168 241.147 161.326 295.876 194.832 317.726C230.143 340.759 259.482 258.881 259.482 258.881C259.482 258.881 242.97 346.91 294.833 333.613C324.989 325.881 318.681 262.589 318.681 262.589C318.681 262.589 341.048 329.946 372.803 319.615C407.807 308.227 384.151 256.301 356.622 241.484C360.795 262.877 392.254 279.115 412.856 273.82C425.047 270.69 461.737 254.776 431.505 225.521C408.108 202.877 355.421 185.609 328.949 140.552C291.07 76.0757 302.279 21.3011 282.271 22.0092C272.031 22.3722 261.905 101.773 226.81 149.131C192.803 195.014 147.261 206.439 126.861 226.015Z" fill="#6B6F35"/>
<path d="M99.6123 215.501C74.7685 239.339 103.017 262.925 128.527 264.301C172.199 266.655 185.827 232.597 185.827 232.597C185.827 232.597 147.97 278.312 185.827 303C225.722 329.023 249.452 252.633 249.452 252.633C249.452 252.633 230.404 318.023 289 303C323.071 294.264 316.338 256.823 316.338 256.823C316.338 256.823 330.123 308.673 366 297C405.549 284.134 390.307 249.718 359.205 232.977C363.919 257.148 392.723 277.982 416 272C429.773 268.463 484.657 248.554 450.5 215.501C424.065 189.918 391.5 155 359.205 99.5C321.5 43.5 333.5 0 268.5 0C215 0 205.076 72.5 169.5 120.5C131.078 172.339 122.661 193.382 99.6123 215.501Z" fill="#F6FBFF"/>
</svg>
